<?xml version="1.0" encoding="utf-8"?>
<!-- Generator: Adobe Illustrator 27.5.0, SVG Export Plug-In . SVG Version: 6.00 Build 0)  -->
<svg version="1.1" id="Layer_1" xmlns="http://www.w3.org/2000/svg" xmlns:xlink="http://www.w3.org/1999/xlink" x="0px" y="0px"
	 viewBox="0 0 850.39 850.39" style="enable-background:new 0 0 850.39 850.39;" xml:space="preserve">
<style type="text/css">
	.st0{fill:#232222;}
</style>
<g>
	<polygon class="st0" points="437.1,154.83 437.1,576.77 193.48,576.77 	"/>
	<path class="st0" d="M656.91,154.83v16.54c-7.96,100.56-88.19,180.79-188.75,188.75h-16.54V154.83H656.91z"/>
	<path class="st0" d="M656.91,154.83v16.54c-7.96,100.56-88.19,180.79-188.75,188.75h-16.54V154.83H656.91z"/>
	<path class="st0" d="M451.62,371.48h16.54c100.56,7.96,180.79,88.19,188.75,188.75v16.54H451.62V371.48z"/>
</g>
<g>
	<path class="st0" d="M211.68,653.81l-7.35,20.88h-10.85l30.79-83.39h11.78l31.03,83.39h-11.31l-7.35-20.88H211.68z M245.04,644.48
		l-14.81-43.5h-0.23l-14.81,43.5H245.04z"/>
	<path class="st0" d="M297.76,621.73c-14.11,0-19.01,12.01-19.01,23.21c0,11.2,4.9,23.21,19.01,23.21c12.01,0,15.86-8.28,16.33-15.4
		h9.8c-0.82,13.53-11.43,23.56-26.13,23.56c-17.38,0-28.81-12.72-28.81-31.38c0-18.66,11.43-31.38,28.81-31.38
		c14.7,0,24.73,9.8,26.13,23.09h-9.8C313.62,630.13,309.66,621.73,297.76,621.73z"/>
	<path class="st0" d="M343.02,615.2v11.78h0.23c3.15-7.81,7.93-13.41,16.44-13.41c2.22,0,3.85,0.12,5.48,0.35v9.33
		c-1.4-0.23-2.45-0.35-3.85-0.35c-10.96,0-18.31,8.63-18.31,20.06v31.73h-9.33V615.2H343.02z"/>
	<path class="st0" d="M368.1,644.95c0-18.55,10.96-31.49,29.16-31.49c18.08,0,29.04,12.95,29.04,31.49
		c0,18.55-10.97,31.49-29.04,31.49C379.06,676.44,368.1,663.49,368.1,644.95z M416.5,644.95c0-12.71-5.95-23.33-19.25-23.33
		c-13.41,0-19.36,10.62-19.36,23.33s5.95,23.33,19.36,23.33C410.56,668.27,416.5,657.66,416.5,644.95z"/>
	<path class="st0" d="M436.45,615.2h9.33v7.11h0.23c3.15-4.2,9.45-8.75,19.59-8.75c10.85,0,19.95,5.95,19.95,19.6v41.52h-9.33V635.5
		c0-7.7-3.62-13.76-12.95-13.76c-10.5,0-17.5,6.65-17.5,15.86v37.09h-9.33V615.2z"/>
	<path class="st0" d="M490.34,615.2h10.5l18.31,47.35h0.23l17.5-47.35h10.03l-24.02,61.23c-5.95,15.05-11.67,19.13-19.71,19.13
		c-2.1,0-3.5-0.12-6.18-0.58v-7.93c1.98,0.23,2.92,0.35,4.66,0.35c4.9,0,10.26-3.03,12.83-13.3L490.34,615.2z"/>
	<path class="st0" d="M554.03,615.2h9.33v7.11h0.23c3.15-4.2,8.28-8.75,17.26-8.75c8.51,0,13.41,3.62,15.86,10.26h0.23
		c4.08-5.6,10.27-10.26,19.25-10.26c12.01,0,17.84,7.11,17.84,19.6v41.52h-9.33V635.5c0-7.7-1.52-13.76-10.85-13.76
		s-15.16,6.65-15.16,15.86v37.09h-9.33V635.5c0-7.7-1.51-13.76-10.85-13.76s-15.16,6.65-15.16,15.86v37.09h-9.33V615.2z"/>
	<path class="st0" d="M656.91,663.49v11.2h-11.2v-11.2H656.91z"/>
</g>
</svg>
